<svg width="35" height="37" viewBox="0 0 35 37" fill="none" xmlns="http://www.w3.org/2000/svg">
<path fill-rule="evenodd" clip-rule="evenodd" d="M11.5009 6.50087C9.74137 8.26037 8.75289 10.6468 8.75289 13.1351C8.75289 13.4251 8.76632 13.7136 8.79282 14H5.02852C4.96603 13.0531 5.00613 12.0989 5.15024 11.1542C5.46411 9.09673 6.26242 7.14329 7.47936 5.45487C8.69631 3.76645 10.2971 2.39138 12.1497 1.44298C14.0023 0.494578 16.0538 0 18.1351 0C20.5744 0 22.9656 0.679276 25.0406 1.96171C27.1157 3.24415 28.7926 5.07908 29.8835 7.2609C30.9744 9.44271 31.4362 11.8852 31.2171 14.3147C30.998 16.7442 30.1068 19.0647 28.6432 21.0161C28.7141 21.0695 28.7812 21.1278 28.8439 21.1906L34.4733 26.82C34.8151 27.1739 35.0042 27.6479 34.9999 28.1399C34.9957 28.6319 34.7983 29.1025 34.4504 29.4504C34.1025 29.7983 33.6319 29.9957 33.1399 29.9999C32.6479 30.0042 32.1739 29.8151 31.82 29.4733L26.1907 23.8439C26.1278 23.7812 26.0695 23.7141 26.0161 23.6432C25.0866 24.3403 24.0719 24.9086 23 25.336V21.1575C23.6381 20.7705 24.2329 20.3058 24.7693 19.7693C26.5288 18.0098 27.5173 15.6234 27.5173 13.1351C27.5173 10.6468 26.5288 8.26037 24.7693 6.50087C23.0098 4.74136 20.6234 3.75288 18.1351 3.75288C15.6468 3.75288 13.2604 4.74136 11.5009 6.50087Z" fill="#1655BD"/>
<path d="M6.6 18.3H15.4C16.2752 18.3 17.1146 18.6477 17.7335 19.2665C18.3523 19.8854 18.7 20.7248 18.7 21.6V30.4C18.7 31.2752 18.3523 32.1146 17.7335 32.7335C17.1146 33.3523 16.2752 33.7 15.4 33.7H6.6C5.72479 33.7 4.88542 33.3523 4.26655 32.7335C3.64768 32.1146 3.3 31.2752 3.3 30.4V21.6C3.3 20.7248 3.64768 19.8854 4.26655 19.2665C4.88542 18.6477 5.72479 18.3 6.6 18.3ZM6.6 20.5C6.30826 20.5 6.02847 20.6159 5.82218 20.8222C5.61589 21.0285 5.5 21.3083 5.5 21.6V30.4C5.5 30.6917 5.61589 30.9715 5.82218 31.1778C6.02847 31.3841 6.30826 31.5 6.6 31.5H15.4C15.6917 31.5 15.9715 31.3841 16.1778 31.1778C16.3841 30.9715 16.5 30.6917 16.5 30.4V21.6C16.5 21.3083 16.3841 21.0285 16.1778 20.8222C15.9715 20.6159 15.6917 20.5 15.4 20.5H6.6ZM8.8 22.7H13.2C13.4917 22.7 13.7715 22.8159 13.9778 23.0222C14.1841 23.2285 14.3 23.5083 14.3 23.8V28.2C14.3 28.4917 14.1841 28.7715 13.9778 28.9778C13.7715 29.1841 13.4917 29.3 13.2 29.3H8.8C8.50826 29.3 8.22847 29.1841 8.02218 28.9778C7.81589 28.7715 7.7 28.4917 7.7 28.2V23.8C7.7 23.5083 7.81589 23.2285 8.02218 23.0222C8.22847 22.8159 8.50826 22.7 8.8 22.7ZM9.9 24.9V27.1H12.1V24.9H9.9ZM6.6 15C6.89174 15 7.17153 15.1159 7.37782 15.3222C7.58411 15.5285 7.7 15.8083 7.7 16.1V18.3C7.7 18.5917 7.58411 18.8715 7.37782 19.0778C7.17153 19.2841 6.89174 19.4 6.6 19.4C6.30826 19.4 6.02847 19.2841 5.82218 19.0778C5.61589 18.8715 5.5 18.5917 5.5 18.3V16.1C5.5 15.8083 5.61589 15.5285 5.82218 15.3222C6.02847 15.1159 6.30826 15 6.6 15ZM1.1 20.5H3.3C3.59174 20.5 3.87153 20.6159 4.07782 20.8222C4.28411 21.0285 4.4 21.3083 4.4 21.6C4.4 21.8917 4.28411 22.1715 4.07782 22.3778C3.87153 22.5841 3.59174 22.7 3.3 22.7H1.1C0.808262 22.7 0.528473 22.5841 0.322183 22.3778C0.115893 22.1715 0 21.8917 0 21.6C0 21.3083 0.115893 21.0285 0.322183 20.8222C0.528473 20.6159 0.808262 20.5 1.1 20.5ZM18.7 20.5H20.9C21.1917 20.5 21.4715 20.6159 21.6778 20.8222C21.8841 21.0285 22 21.3083 22 21.6C22 21.8917 21.8841 22.1715 21.6778 22.3778C21.4715 22.5841 21.1917 22.7 20.9 22.7H18.7C18.4083 22.7 18.1285 22.5841 17.9222 22.3778C17.7159 22.1715 17.6 21.8917 17.6 21.6C17.6 21.3083 17.7159 21.0285 17.9222 20.8222C18.1285 20.6159 18.4083 20.5 18.7 20.5ZM1.1 24.9H3.3C3.59174 24.9 3.87153 25.0159 4.07782 25.2222C4.28411 25.4285 4.4 25.7083 4.4 26C4.4 26.2917 4.28411 26.5715 4.07782 26.7778C3.87153 26.9841 3.59174 27.1 3.3 27.1H1.1C0.808262 27.1 0.528473 26.9841 0.322183 26.7778C0.115893 26.5715 0 26.2917 0 26C0 25.7083 0.115893 25.4285 0.322183 25.2222C0.528473 25.0159 0.808262 24.9 1.1 24.9ZM18.7 24.9H20.9C21.1917 24.9 21.4715 25.0159 21.6778 25.2222C21.8841 25.4285 22 25.7083 22 26C22 26.2917 21.8841 26.5715 21.6778 26.7778C21.4715 26.9841 21.1917 27.1 20.9 27.1H18.7C18.4083 27.1 18.1285 26.9841 17.9222 26.7778C17.7159 26.5715 17.6 26.2917 17.6 26C17.6 25.7083 17.7159 25.4285 17.9222 25.2222C18.1285 25.0159 18.4083 24.9 18.7 24.9ZM1.1 29.3H3.3C3.59174 29.3 3.87153 29.4159 4.07782 29.6222C4.28411 29.8285 4.4 30.1083 4.4 30.4C4.4 30.6917 4.28411 30.9715 4.07782 31.1778C3.87153 31.3841 3.59174 31.5 3.3 31.5H1.1C0.808262 31.5 0.528473 31.3841 0.322183 31.1778C0.115893 30.9715 0 30.6917 0 30.4C0 30.1083 0.115893 29.8285 0.322183 29.6222C0.528473 29.4159 0.808262 29.3 1.1 29.3ZM18.7 29.3H20.9C21.1917 29.3 21.4715 29.4159 21.6778 29.6222C21.8841 29.8285 22 30.1083 22 30.4C22 30.6917 21.8841 30.9715 21.6778 31.1778C21.4715 31.3841 21.1917 31.5 20.9 31.5H18.7C18.4083 31.5 18.1285 31.3841 17.9222 31.1778C17.7159 30.9715 17.6 30.6917 17.6 30.4C17.6 30.1083 17.7159 29.8285 17.9222 29.6222C18.1285 29.4159 18.4083 29.3 18.7 29.3ZM6.6 32.6C6.89174 32.6 7.17153 32.7159 7.37782 32.9222C7.58411 33.1285 7.7 33.4083 7.7 33.7V35.9C7.7 36.1917 7.58411 36.4715 7.37782 36.6778C7.17153 36.8841 6.89174 37 6.6 37C6.30826 37 6.02847 36.8841 5.82218 36.6778C5.61589 36.4715 5.5 36.1917 5.5 35.9V33.7C5.5 33.4083 5.61589 33.1285 5.82218 32.9222C6.02847 32.7159 6.30826 32.6 6.6 32.6ZM15.4 15C15.6917 15 15.9715 15.1159 16.1778 15.3222C16.3841 15.5285 16.5 15.8083 16.5 16.1V18.3C16.5 18.5917 16.3841 18.8715 16.1778 19.0778C15.9715 19.2841 15.6917 19.4 15.4 19.4C15.1083 19.4 14.8285 19.2841 14.6222 19.0778C14.4159 18.8715 14.3 18.5917 14.3 18.3V16.1C14.3 15.8083 14.4159 15.5285 14.6222 15.3222C14.8285 15.1159 15.1083 15 15.4 15ZM15.4 32.6C15.6917 32.6 15.9715 32.7159 16.1778 32.9222C16.3841 33.1285 16.5 33.4083 16.5 33.7V35.9C16.5 36.1917 16.3841 36.4715 16.1778 36.6778C15.9715 36.8841 15.6917 37 15.4 37C15.1083 37 14.8285 36.8841 14.6222 36.6778C14.4159 36.4715 14.3 36.1917 14.3 35.9V33.7C14.3 33.4083 14.4159 33.1285 14.6222 32.9222C14.8285 32.7159 15.1083 32.6 15.4 32.6ZM11 15C11.2917 15 11.5715 15.1159 11.7778 15.3222C11.9841 15.5285 12.1 15.8083 12.1 16.1V18.3C12.1 18.5917 11.9841 18.8715 11.7778 19.0778C11.5715 19.2841 11.2917 19.4 11 19.4C10.7083 19.4 10.4285 19.2841 10.2222 19.0778C10.0159 18.8715 9.9 18.5917 9.9 18.3V16.1C9.9 15.8083 10.0159 15.5285 10.2222 15.3222C10.4285 15.1159 10.7083 15 11 15ZM11 32.6C11.2917 32.6 11.5715 32.7159 11.7778 32.9222C11.9841 33.1285 12.1 33.4083 12.1 33.7V35.9C12.1 36.1917 11.9841 36.4715 11.7778 36.6778C11.5715 36.8841 11.2917 37 11 37C10.7083 37 10.4285 36.8841 10.2222 36.6778C10.0159 36.4715 9.9 36.1917 9.9 35.9V33.7C9.9 33.4083 10.0159 33.1285 10.2222 32.9222C10.4285 32.7159 10.7083 32.6 11 32.6Z" fill="#F6775B"/>
</svg>
