<svg width="35" height="33" viewBox="0 0 35 33" fill="none" xmlns="http://www.w3.org/2000/svg">
<path fill-rule="evenodd" clip-rule="evenodd" d="M10.1214 0H22.3597C24.4104 0 26.0642 1.60819 25.9981 3.60234V9.14292C25.4571 9.04897 24.9006 9 24.3327 9C23.9611 9 23.5943 9.02097 23.2336 9.06179L23.2197 3.60234C23.2197 3.08772 22.8227 2.70175 22.2935 2.70175H11.5106V7.59064C11.5106 9.58479 9.85678 11.193 7.80604 11.193H2.77842V29.462C2.77842 29.9123 3.17534 30.3626 3.70456 30.3626H22.3597C22.8227 30.3626 23.2858 29.9766 23.2858 29.462L23.2828 28.277C23.6276 28.3142 23.9779 28.3333 24.3327 28.3333C24.9006 28.3333 25.4571 28.2844 25.9981 28.1904V29.3977C25.9981 31.3918 24.3443 33 22.2935 33H3.70456C1.65382 33 0 31.3918 0 29.3977V9.77778C0 9.26316 0.330764 8.94152 0.396917 8.87719L9.1291 0.385965C9.19525 0.321638 9.52601 0 10.1214 0ZM8.73218 7.46199V4.56725L4.76301 8.36257H7.80604C8.33526 8.36257 8.73218 7.97661 8.73218 7.46199Z" fill="#1655BD"/>
<path fill-rule="evenodd" clip-rule="evenodd" d="M32.0333 18.6667C32.0333 22.7352 28.7352 26.0333 24.6667 26.0333C20.5982 26.0333 17.3 22.7352 17.3 18.6667C17.3 14.5982 20.5982 11.3 24.6667 11.3C28.7352 11.3 32.0333 14.5982 32.0333 18.6667ZM34.3333 18.6667C34.3333 24.0054 30.0054 28.3333 24.6667 28.3333C19.3279 28.3333 15 24.0054 15 18.6667C15 13.3279 19.3279 9 24.6667 9C30.0054 9 34.3333 13.3279 34.3333 18.6667ZM23.965 20.1305H25.6993C26.6317 20.1305 27.4149 19.8443 28.049 19.272C28.683 18.6906 29 17.9707 29 17.1122C29 16.2537 28.6783 15.5203 28.035 14.9122C27.4009 14.3041 26.6224 14 25.6993 14H23.049C22.4967 14 22.049 14.4477 22.049 15V18.5073H21.8116C21.3634 18.5073 21 18.8707 21 19.3189C21 19.7671 21.3634 20.1305 21.8116 20.1305H22.049V20.8683H21.8951C21.4008 20.8683 21 21.2691 21 21.7634C21 22.2578 21.4008 22.6585 21.8951 22.6585H22.049V23.042C22.049 23.5711 22.4779 24 23.007 24C23.5361 24 23.965 23.5711 23.965 23.042V22.6585H26.1888C26.6832 22.6585 27.0839 22.2578 27.0839 21.7634C27.0839 21.2691 26.6832 20.8683 26.1888 20.8683H23.965V20.1305ZM23.965 18.5073V15.7305H25.6993C26.0909 15.7305 26.4172 15.8646 26.6783 16.1329C26.9487 16.3923 27.0839 16.7187 27.0839 17.1122C27.0839 17.5057 26.9487 17.8366 26.6783 18.1049C26.4172 18.3732 26.0909 18.5073 25.6993 18.5073H23.965Z" fill="#F6775B"/>
</svg>
