<svg width="17" height="14" viewBox="0 0 17 14" fill="none" xmlns="http://www.w3.org/2000/svg">
<path d="M1.53925 2.57695L15.2072 0.203694C15.6112 0.133548 15.9955 0.404172 16.0657 0.808149C16.0947 0.975208 16.0656 1.14716 15.9833 1.29542L9.25157 13.4251C9.05261 13.7836 8.60068 13.9129 8.24217 13.7139C8.08638 13.6275 7.96688 13.4879 7.90549 13.3206L6.2662 8.85452C6.22513 8.74263 6.25494 8.61703 6.3419 8.53552L10.8072 4.35028C10.8454 4.31391 10.8608 4.26083 10.85 4.21102L10.8369 4.17459C10.8046 4.11212 10.7342 4.08218 10.6689 4.09856L10.6368 4.11068L5.22274 6.94908C5.11719 7.00441 4.98879 6.99129 4.89662 6.91575L1.19569 3.88264C0.878551 3.62275 0.832146 3.15498 1.09204 2.83785C1.20497 2.70003 1.3637 2.60744 1.53925 2.57695Z" fill="#FFAB99"/>
</svg>
