<svg width="14" height="20" viewBox="0 0 14 20" fill="none" xmlns="http://www.w3.org/2000/svg">
<path fill-rule="evenodd" clip-rule="evenodd" d="M7 11.3335C8.93301 11.3335 10.5 9.78134 10.5 7.8668C10.5 5.95222 8.93301 4.40015 7 4.40015C5.067 4.40015 3.5 5.95222 3.5 7.8668C3.5 9.78134 5.067 11.3335 7 11.3335ZM7 9.79552C5.92457 9.79552 5.05276 8.93201 5.05276 7.8668C5.05276 6.80161 5.92457 5.93812 7 5.93812C8.07544 5.93812 8.94725 6.80161 8.94725 7.8668C8.94725 8.93201 8.07544 9.79552 7 9.79552Z" fill="#F6775B"/>
<path fill-rule="evenodd" clip-rule="evenodd" d="M13.8374 9.6766C14.7908 5.16816 11.4283 0.666748 6.99981 0.666748C2.57258 0.666748 -0.790223 5.17434 0.162381 9.67715C0.89766 13.3342 3.871 16.8861 5.64557 18.7385C6.40558 19.5317 7.59404 19.5317 8.35404 18.7385C10.1287 16.886 13.1023 13.3338 13.8374 9.6766ZM6.99981 2.22309C10.4749 2.22309 13.1477 5.79198 12.3979 9.33763C12.0377 11.0413 11.2297 12.5712 10.2815 13.9855C9.29059 15.4635 8.1671 16.7444 7.31683 17.632C7.13152 17.8254 6.8681 17.8254 6.68278 17.632C5.83251 16.7445 4.70916 15.4637 3.71827 13.9857C2.76999 12.5713 1.96225 11.0417 1.60183 9.33802C0.852787 5.79744 3.52655 2.22309 6.99981 2.22309Z" fill="#F6775B"/>
</svg>
