<svg width="331" height="128" viewBox="0 0 331 128" fill="none" xmlns="http://www.w3.org/2000/svg">
<path d="M169.701 58.2866C172.696 60.9412 174.194 64.2884 174.194 68.4435C174.194 72.5986 172.696 75.9458 169.701 78.6004C166.705 81.255 162.673 82.7555 157.604 83.2172V87.4877H150.576V83.2172C145.507 82.6401 141.475 81.1396 138.479 78.6004C135.484 76.0612 133.986 72.5986 133.986 68.4435C133.986 64.2884 135.484 60.9412 138.479 58.2866C141.475 55.7474 145.507 54.1315 150.576 53.6698V49.3993L157.604 47.3218V53.6698C162.673 54.1315 166.705 55.632 169.701 58.2866ZM141.129 68.4435C141.129 73.1757 144.24 75.9458 150.576 76.6383V60.2487C144.355 60.9413 141.129 63.5959 141.129 68.4435ZM157.604 76.6383C163.94 75.9458 167.051 73.1757 167.051 68.4435C167.051 63.7113 163.94 60.9413 157.604 60.1333V76.6383Z" fill="#18468B"/>
<path d="M197.236 60.5947H202.19V86.5641H195.623V71.7904L183.411 86.5641H178.457V60.5947H185.024V75.3684L197.236 60.5947Z" fill="#18468B"/>
<path d="M225.346 60.5947H232.028V86.5641H225.346V76.638H214.977V86.5641H208.295V60.5947H214.977V70.4054H225.346V60.5947Z" fill="#18468B"/>
<path d="M265.667 50.207V86.6795H258.525V57.1322H245.737V86.6795H238.594V50.207H265.667Z" fill="#18468B"/>
<path d="M287.211 59.9023C290.668 59.9023 293.663 61.1719 296.197 63.8266C298.617 66.4812 299.884 69.713 299.884 73.6372C299.884 77.4461 298.617 80.7932 296.197 83.4479C293.778 86.1025 290.783 87.3721 287.211 87.3721C283.525 87.3721 280.76 86.1025 278.801 83.5633V97.0673H272.119V60.5948H278.801V63.7112C280.76 61.1719 283.64 59.9023 287.211 59.9023ZM280.875 78.9465C282.257 80.3316 283.985 81.0241 286.059 81.0241C288.133 81.0241 289.861 80.3316 291.244 78.9465C292.626 77.5615 293.317 75.8302 293.317 73.6372C293.317 71.4443 292.626 69.713 291.244 68.3279C289.861 66.9429 288.133 66.2504 286.059 66.2504C283.985 66.2504 282.257 66.9429 280.875 68.3279C279.492 69.713 278.801 71.4443 278.801 73.6372C278.801 75.7148 279.492 77.5615 280.875 78.9465Z" fill="#18468B"/>
<path d="M326.727 83.3331C324.077 85.9878 320.851 87.2574 316.934 87.2574C313.132 87.2574 309.791 85.8723 307.142 83.3331C304.492 80.6785 303.225 77.4467 303.225 73.5225C303.225 69.7136 304.492 66.3665 307.142 63.7118C309.791 61.0572 313.017 59.7876 316.934 59.7876C320.736 59.7876 324.077 61.0572 326.727 63.7118C329.377 66.3665 330.759 69.5982 330.759 73.5225C330.759 77.4467 329.492 80.6785 326.727 83.3331ZM311.98 78.7163C313.363 80.1014 314.976 80.7939 317.049 80.7939C319.008 80.7939 320.736 80.1014 322.119 78.7163C323.501 77.3313 324.192 75.6 324.192 73.5225C324.192 71.4449 323.501 69.7136 322.119 68.3286C320.736 66.9436 319.123 66.2511 317.049 66.2511C315.091 66.2511 313.363 66.9436 311.98 68.3286C310.598 69.7136 310.022 71.4449 310.022 73.5225C310.022 75.7154 310.713 77.4467 311.98 78.7163Z" fill="#18468B"/>
<path fill-rule="evenodd" clip-rule="evenodd" d="M102.88 68.7895C102.88 68.5587 102.88 68.4433 102.88 68.3279C102.88 60.4794 107.373 53.785 113.825 50.4379C113.594 49.3991 111.751 43.3973 108.41 37.9726C105.415 32.8942 101.267 28.5082 101.152 28.5082C98.0413 30.4704 94.3547 31.6246 90.4376 31.6246C84.6773 31.6246 79.6082 29.2007 75.9215 25.3919C74.539 24.0069 73.5022 22.6219 72.8109 21.1214C72.8109 21.006 72.6957 21.006 72.6957 20.8906C72.4653 20.5443 72.3501 20.198 72.2349 19.8518C71.0828 17.3126 70.3916 14.4271 70.3916 11.4262C70.3916 11.1954 70.3916 11.0799 70.3916 10.8491C69.5851 10.6183 63.7096 9.34863 56.9124 9.34863C50.1151 9.34863 44.2396 10.7337 43.4331 10.8491C43.4331 11.0799 43.4331 11.1954 43.4331 11.4262C43.4331 14.4271 42.7419 17.3126 41.5898 19.8518C41.4746 20.198 41.2442 20.5443 41.129 20.8906C41.129 21.006 41.0138 21.006 41.0138 21.1214C40.2073 22.6219 39.1704 24.0069 37.9032 25.3919C34.2165 29.2007 29.1474 31.6246 23.3871 31.6246C19.47 31.6246 15.7834 30.4704 12.6728 28.5082C12.6728 28.5082 8.41012 32.8942 5.41473 37.9726C2.07373 43.3973 0.345622 49.5145 0 50.4379C6.4516 53.785 10.9447 60.5948 10.9447 68.3279C10.9447 68.4433 10.9447 68.4433 10.9447 68.5587V68.6741V68.7895C10.9447 68.905 10.9447 68.905 10.9447 69.0204C10.9447 76.8689 6.4516 83.5632 0 86.9104C0.230414 87.9492 2.07373 93.9509 5.41473 99.3756C8.41012 104.454 12.5576 108.84 12.6728 108.84C15.7834 106.878 19.47 105.724 23.3871 105.724C29.1474 105.724 34.2165 108.147 37.9032 111.956C39.2857 113.341 40.3225 114.726 41.0138 116.227C41.0138 116.342 41.129 116.342 41.129 116.458C41.3594 116.804 41.4746 117.15 41.5898 117.496C42.7419 120.036 43.4331 122.921 43.4331 125.922C43.4331 126.153 43.4331 126.268 43.4331 126.499C44.2396 126.73 50.1151 128 56.9124 128C63.7096 128 69.5851 126.615 70.3916 126.499C70.3916 126.268 70.3916 126.153 70.3916 125.922C70.3916 122.921 71.0828 120.036 72.2349 117.496C72.3501 117.15 72.5805 116.804 72.6957 116.458C72.6957 116.342 72.8109 116.342 72.8109 116.227C73.6174 114.726 74.6543 113.341 75.9215 111.956C79.6082 108.147 84.6773 105.724 90.4376 105.724C94.3547 105.724 98.0413 106.878 101.152 108.84C101.152 108.84 105.415 104.454 108.41 99.3756C111.751 93.9509 113.479 87.8337 113.825 86.9104C107.258 83.5632 102.88 76.7535 102.88 68.7895Z" fill="url(#paint0_linear_153_66396)"/>
<path fill-rule="evenodd" clip-rule="evenodd" d="M90.552 0C96.7732 0 101.842 5.07847 101.842 11.3111C101.842 17.5437 96.7732 22.6222 90.552 22.6222C84.3308 22.6222 79.2617 17.5437 79.2617 11.3111C79.2617 5.07847 84.3308 0 90.552 0Z" fill="#F6775B"/>
<path fill-rule="evenodd" clip-rule="evenodd" d="M101.266 28.5086C98.1557 30.4707 94.5842 31.6249 90.6672 31.6249C84.9068 31.6249 79.8377 29.2011 76.1511 25.3922C74.7686 24.0072 73.7318 22.6222 73.0405 21.1218C73.0405 21.0063 72.9253 21.0063 72.9253 20.8909C72.6949 20.5446 72.5797 20.1984 72.4645 19.8521C71.3124 17.3129 70.6212 14.4274 70.6212 11.4265C70.6212 11.3111 70.6212 11.1957 70.6212 10.9648L13.0176 108.84C16.1282 106.878 19.6996 105.839 23.6166 105.839C29.377 105.839 34.4461 108.263 38.1327 112.072C39.5152 113.457 40.5521 114.842 41.2433 116.343C41.2433 116.458 41.3585 116.458 41.3585 116.573C41.589 116.92 41.7042 117.266 41.8194 117.612C42.9714 120.151 43.6627 123.037 43.6627 126.038C43.6627 126.153 43.6627 126.384 43.6627 126.5L101.266 28.5086Z" fill="url(#paint1_linear_153_66396)"/>
<path fill-rule="evenodd" clip-rule="evenodd" d="M62.5591 51.9387V44.7827L51.4992 46.514V51.9387C45.278 52.6312 40.4393 54.5933 36.8679 57.8251C33.2965 61.0568 31.5684 65.2119 31.5684 70.2904C31.5684 75.3688 33.2965 79.5239 36.8679 82.7556C40.4393 85.9874 45.278 87.9495 51.4992 88.7575V93.8359H62.5591V88.7575C68.7803 87.9495 73.619 85.9874 77.1904 82.7556C80.6466 79.5239 82.4899 75.3688 82.4899 70.2904C82.4899 65.2119 80.7618 61.0568 77.1904 57.8251C73.7342 54.5933 68.8955 52.6312 62.5591 51.9387ZM45.5084 64.7502C46.5453 63.4806 48.7342 62.5573 51.6144 62.0956V78.1389C45.9692 77.4464 43.2043 74.6763 43.2043 70.2904C43.2043 67.8666 43.8955 66.1353 45.5084 64.7502ZM62.5591 62.0956C65.5545 62.5573 67.7434 63.3652 69.0107 64.7502C70.3932 66.0198 71.0844 67.8666 71.0844 70.1749C71.0844 72.3679 70.3932 74.2146 69.0107 75.4842C67.8586 76.7539 65.5545 77.6772 62.5591 78.1389V62.0956Z" fill="white"/>
<path d="M138.938 36.2417H139.86V42.936H138.708V38.2038L135.021 42.936H134.1V36.2417H135.252V40.9739L138.938 36.2417Z" fill="#F6775B"/>
<path d="M146.196 36.2417H147.348V42.936H146.196V40.1659H142.74V42.936H141.588V36.2417H142.74V39.0118H146.196V36.2417Z" fill="#F6775B"/>
<path d="M152.302 43.0515C151.265 43.0515 150.459 42.7053 149.767 42.0127C149.076 41.3202 148.73 40.5123 148.73 39.4735C148.73 38.4347 149.076 37.6268 149.767 36.9343C150.459 36.2418 151.265 35.8955 152.302 35.8955C152.993 35.8955 153.569 36.0109 154.03 36.3572C154.606 36.7034 154.952 37.0497 155.182 37.6268L154.26 38.2039C154.145 37.8576 153.8 37.5114 153.454 37.396C153.108 37.1651 152.763 37.0497 152.302 37.0497C151.611 37.0497 151.035 37.2805 150.574 37.7422C150.113 38.2039 149.883 38.781 149.883 39.4735C149.883 40.166 150.113 40.7431 150.574 41.2048C151.035 41.6665 151.611 41.8973 152.302 41.8973C152.763 41.8973 153.108 41.7819 153.454 41.551C153.8 41.3202 154.03 41.0894 154.26 40.7431L155.297 41.3202C155.067 41.8973 154.606 42.2436 154.03 42.5898C153.454 42.9361 152.878 43.0515 152.302 43.0515Z" fill="#F6775B"/>
<path d="M161.29 36.2417V37.3959H158.986V42.936H157.833V37.3959H155.529V36.2417H161.29Z" fill="#F6775B"/>
<path d="M166.013 36.126C166.934 36.126 167.741 36.4722 168.432 37.1647C169.123 37.8573 169.469 38.6652 169.469 39.704C169.469 40.6273 169.123 41.5507 168.432 42.2432C167.741 42.9357 166.934 43.2819 166.013 43.2819C164.861 43.2819 164.054 42.8203 163.478 42.0124V45.8212H162.326V36.4722H163.478V37.6264C164.054 36.4722 164.976 36.126 166.013 36.126ZM165.898 42.0124C166.589 42.0124 167.165 41.7815 167.626 41.3198C168.087 40.8582 168.317 40.2811 168.317 39.5886C168.317 38.896 168.087 38.3189 167.626 37.8573C167.165 37.3956 166.589 37.1647 165.898 37.1647C165.206 37.1647 164.63 37.3956 164.169 37.8573C163.709 38.3189 163.478 38.896 163.478 39.5886C163.478 40.2811 163.709 40.8582 164.169 41.3198C164.63 41.7815 165.206 42.0124 165.898 42.0124Z" fill="#F6775B"/>
<path d="M175.227 36.2417H176.495L173.73 43.2822C173.499 44.0902 173.038 44.6673 172.577 45.0135C172.117 45.3598 171.425 45.5906 170.849 45.5906V44.5519C171.656 44.6673 172.232 44.2056 172.693 43.1669L172.808 42.936L169.928 36.2417H171.195L173.499 41.4356L175.227 36.2417Z" fill="#F6775B"/>
<path d="M184.1 36.2417V42.936H182.948V38.0884L180.874 41.551H180.759L178.685 38.0884V42.936H177.533V36.2417H178.8L180.874 39.5889L182.948 36.2417H184.1Z" fill="#F6775B"/>
<path d="M186.752 40.1658C186.867 40.7429 187.097 41.2046 187.558 41.5509C188.019 41.8971 188.48 42.0126 189.171 42.0126C190.093 42.0126 190.669 41.6663 191.13 41.0892L192.166 41.6663C191.475 42.7051 190.554 43.1667 189.286 43.1667C188.249 43.1667 187.328 42.8205 186.752 42.1279C186.176 41.4354 185.715 40.6275 185.715 39.5887C185.715 38.55 186.06 37.742 186.637 37.0495C187.213 36.357 188.134 36.0107 189.171 36.0107C190.093 36.0107 190.899 36.357 191.59 37.0495C192.166 37.742 192.512 38.55 192.512 39.5887C192.512 39.7042 192.512 39.935 192.512 40.1658H186.752ZM189.056 37.1649C188.48 37.1649 187.904 37.3958 187.558 37.742C187.097 38.0883 186.867 38.55 186.752 39.1271H191.245C191.13 38.55 190.899 37.9729 190.554 37.742C190.208 37.5112 189.517 37.1649 189.056 37.1649Z" fill="#F6775B"/>
<path d="M198.268 36.2417H199.421V42.936H198.268V40.1659H194.812V42.936H193.66V36.2417H194.812V39.0118H198.268V36.2417Z" fill="#F6775B"/>
<path d="M206.219 36.2417V37.3959H203.915V42.936H202.763V37.3959H200.459V36.2417H206.219Z" fill="#F6775B"/>
<path d="M210.021 38.6652C210.712 38.6652 211.288 38.896 211.634 39.2423C212.095 39.5885 212.325 40.1657 212.325 40.7427C212.325 41.3198 212.095 41.8969 211.634 42.2432C211.173 42.5894 210.597 42.8203 210.021 42.8203H207.256V36.126H208.408V38.5498H210.021V38.6652ZM210.021 41.8969C210.366 41.8969 210.597 41.7815 210.827 41.6661C211.058 41.5507 211.173 41.2044 211.173 40.8582C211.173 40.5119 211.058 40.2811 210.827 40.0502C210.597 39.8194 210.366 39.704 210.021 39.704H208.408V41.7815H210.021V41.8969ZM213.247 36.2414H214.399V42.9357H213.247V36.2414Z" fill="#F6775B"/>
<path d="M223.153 36.126C224.075 36.126 224.882 36.4722 225.573 37.1647C226.264 37.8573 226.61 38.6652 226.61 39.704C226.61 40.6273 226.264 41.5507 225.573 42.2432C224.882 42.9357 224.075 43.2819 223.153 43.2819C222.001 43.2819 221.195 42.8203 220.619 42.0124V45.8212H219.467V36.4722H220.619V37.6264C221.31 36.4722 222.117 36.126 223.153 36.126ZM223.038 42.0124C223.729 42.0124 224.305 41.7815 224.766 41.3198C225.227 40.8582 225.458 40.2811 225.458 39.5886C225.458 38.896 225.227 38.3189 224.766 37.8573C224.305 37.3956 223.729 37.1647 223.038 37.1647C222.347 37.1647 221.771 37.3956 221.31 37.8573C220.849 38.3189 220.619 38.896 220.619 39.5886C220.619 40.2811 220.849 40.8582 221.31 41.3198C221.771 41.7815 222.347 42.0124 223.038 42.0124Z" fill="#F6775B"/>
<path d="M233.524 36.2418H234.676V42.9361H233.524V41.7819C232.948 42.7053 232.141 43.0515 230.989 43.0515C230.068 43.0515 229.261 42.7053 228.57 42.0127C227.879 41.3202 227.533 40.5123 227.533 39.4735C227.533 38.5502 227.879 37.6268 228.57 36.9343C229.261 36.2418 230.068 35.8955 230.989 35.8955C232.141 35.8955 232.948 36.3572 233.524 37.1651V36.2418ZM231.105 42.0127C231.796 42.0127 232.372 41.7819 232.833 41.3202C233.294 40.8585 233.524 40.2815 233.524 39.5889C233.524 38.8964 233.294 38.3193 232.833 37.8576C232.372 37.396 231.796 37.1651 231.105 37.1651C230.413 37.1651 229.837 37.396 229.376 37.8576C228.916 38.3193 228.685 38.8964 228.685 39.5889C228.685 40.2815 228.916 40.8585 229.376 41.3202C229.953 41.7819 230.413 42.0127 231.105 42.0127Z" fill="#F6775B"/>
<path d="M240.091 39.4733C240.782 39.8196 241.243 40.2812 241.243 41.0892C241.243 41.6663 241.012 42.128 240.552 42.4742C240.091 42.8205 239.515 43.0513 238.708 43.0513C237.326 43.0513 236.519 42.4742 236.059 41.4355L236.98 40.8584C237.211 41.5509 237.787 41.8971 238.708 41.8971C239.169 41.8971 239.515 41.7817 239.745 41.6663C239.976 41.4354 240.091 41.2046 240.091 40.9738C240.091 40.7429 239.976 40.5121 239.745 40.2813C239.515 40.1658 239.284 40.0504 238.939 40.0504H238.017V39.0116H238.708C239.054 39.0116 239.284 38.8962 239.515 38.7808C239.745 38.6654 239.745 38.4345 239.745 38.0883C239.745 37.8574 239.63 37.6266 239.4 37.3958C239.169 37.1649 238.939 37.1649 238.478 37.1649C237.787 37.1649 237.211 37.5112 236.98 38.0883L236.059 37.5112C236.519 36.5878 237.326 36.0107 238.478 36.0107C239.169 36.0107 239.745 36.2416 240.206 36.5878C240.667 36.9341 240.782 37.3958 240.782 37.9729C240.897 38.6654 240.552 39.2425 240.091 39.4733Z" fill="#F6775B"/>
<path d="M246.89 39.4734C247.581 39.7043 247.926 40.2813 247.926 40.9739C247.926 41.551 247.696 42.0126 247.35 42.3589C247.005 42.7052 246.429 42.936 245.737 42.936H242.396V36.2417H245.507C246.198 36.2417 246.659 36.3571 247.005 36.7034C247.35 37.0496 247.581 37.5113 247.581 37.973C247.581 38.6655 247.35 39.2426 246.89 39.4734ZM245.392 37.2805H243.549V39.0118H245.392C246.083 39.0118 246.429 38.6655 246.429 38.0884C246.429 37.6267 246.083 37.2805 245.392 37.2805ZM245.737 41.8972C246.083 41.8972 246.314 41.7818 246.544 41.6664C246.774 41.551 246.774 41.3201 246.774 40.9739C246.774 40.743 246.659 40.5122 246.544 40.2814C246.429 40.0505 246.083 40.0505 245.737 40.0505H243.664V41.8972H245.737Z" fill="#F6775B"/>
<path d="M254.03 36.2417H254.952V42.936H253.8V38.2038L250.113 42.936H249.191V36.2417H250.343V40.9739L254.03 36.2417Z" fill="#F6775B"/>
<path d="M261.635 36.2417V37.3959H259.331V42.936H258.179V37.3959H255.875V36.2417H261.635Z" fill="#F6775B"/>
<path d="M267.509 36.2417H268.43V42.936H267.278V38.2038L263.592 42.936H262.67V36.2417H263.822V40.9739L267.509 36.2417Z" fill="#F6775B"/>
<path d="M275.229 36.2417V42.936H274.077V40.5122H273.155L271.312 42.936H269.93L271.888 40.5122C271.427 40.3968 270.967 40.1659 270.621 39.8197C270.275 39.4734 270.16 39.0118 270.16 38.5501C270.16 37.973 270.391 37.3959 270.851 37.0496C271.312 36.5879 271.888 36.4725 272.464 36.4725H275.229V36.2417ZM272.464 39.4734H274.077V37.2805H272.464C272.119 37.2805 271.888 37.3959 271.658 37.6267C271.427 37.8575 271.312 38.0884 271.312 38.4347C271.312 38.7809 271.427 39.0117 271.658 39.2426C271.888 39.4734 272.119 39.4734 272.464 39.4734Z" fill="#F6775B"/>
<path d="M283.407 43.0514C282.371 43.0514 281.564 42.7051 280.988 42.128C280.297 41.4355 280.066 40.6276 280.066 39.5888C280.066 38.4346 280.182 37.6266 280.527 36.9341C280.873 36.357 281.564 35.7799 282.601 35.3183C282.831 35.2028 283.062 35.0874 283.407 34.972C283.753 34.8566 283.983 34.7412 284.099 34.6257C284.214 34.5103 284.444 34.3949 284.56 34.2795C284.79 34.1641 284.905 34.0487 285.02 33.8178C285.136 33.7024 285.136 33.4716 285.251 33.2407L286.172 33.8178C286.172 33.9332 286.057 34.0486 286.057 34.1641C286.057 34.2795 285.942 34.3949 285.827 34.5103C285.712 34.6258 285.712 34.7412 285.596 34.7412C285.481 34.7412 285.481 34.8566 285.251 34.972C285.136 35.0874 285.02 35.0874 284.905 35.2028C284.79 35.2028 284.675 35.3183 284.56 35.4337C284.444 35.5491 284.214 35.5491 284.214 35.6645C284.099 35.6645 283.983 35.7799 283.753 35.8954C283.523 36.0108 283.407 36.0108 283.292 36.1262C282.716 36.357 282.255 36.7033 281.91 36.9341C281.679 37.165 281.449 37.5112 281.334 37.9729C281.564 37.6267 282.025 37.3958 282.371 37.165C282.831 37.0496 283.177 36.9341 283.638 36.9341C284.444 36.9341 285.136 37.165 285.712 37.7421C286.288 38.3192 286.633 39.0117 286.633 39.935C286.633 40.8584 286.288 41.5509 285.712 42.128C285.136 42.8205 284.329 43.0514 283.407 43.0514ZM281.91 41.4355C282.371 41.7818 282.831 42.0126 283.523 42.0126C284.099 42.0126 284.675 41.7818 285.02 41.4355C285.481 41.0892 285.596 40.6275 285.596 40.0505C285.596 39.4734 285.366 39.0117 285.02 38.55C284.675 38.2038 284.099 37.9729 283.523 37.9729C282.947 37.9729 282.486 38.2038 282.025 38.55C281.564 38.8963 281.334 39.3579 281.334 39.935C281.218 40.5121 281.449 40.9738 281.91 41.4355Z" fill="#F6775B"/>
<path d="M292.854 36.2417H293.776V42.936H292.624V38.2038L288.937 42.936H288.016V36.2417H289.168V40.9739L292.854 36.2417Z" fill="#F6775B"/>
<path d="M299.077 39.4733C299.768 39.8196 300.229 40.2812 300.229 41.0892C300.229 41.6663 299.999 42.128 299.538 42.4742C299.077 42.8205 298.501 43.0513 297.695 43.0513C296.312 43.0513 295.506 42.4742 295.045 41.4355L295.967 40.8584C296.197 41.5509 296.773 41.8971 297.695 41.8971C298.156 41.8971 298.501 41.7817 298.732 41.6663C298.962 41.4354 299.077 41.2046 299.077 40.9738C299.077 40.7429 298.962 40.5121 298.732 40.2813C298.501 40.1658 298.271 40.0504 297.925 40.0504H297.003V39.0116H297.695C298.04 39.0116 298.271 38.8962 298.501 38.7808C298.732 38.6654 298.732 38.4345 298.732 38.0883C298.732 37.8574 298.616 37.6266 298.386 37.3958C298.156 37.1649 297.925 37.1649 297.464 37.1649C296.773 37.1649 296.197 37.5112 295.967 38.0883L295.045 37.5112C295.506 36.5878 296.312 36.0107 297.464 36.0107C298.156 36.0107 298.732 36.2416 299.192 36.5878C299.653 36.9341 299.768 37.3958 299.768 37.9729C299.884 38.6654 299.653 39.2425 299.077 39.4733Z" fill="#F6775B"/>
<path d="M306.102 36.2417H307.254V42.936H306.102V40.1659H302.646V42.936H301.494V36.2417H302.646V39.0118H306.102V36.2417Z" fill="#F6775B"/>
<path d="M309.906 40.1658C310.021 40.7429 310.252 41.2046 310.712 41.5509C311.173 41.8971 311.634 42.0126 312.325 42.0126C313.247 42.0126 313.823 41.6663 314.284 41.0892L315.321 41.6663C314.63 42.7051 313.708 43.1667 312.441 43.1667C311.404 43.1667 310.482 42.8205 309.906 42.1279C309.33 41.4354 308.869 40.6275 308.869 39.5887C308.869 38.55 309.215 37.742 309.791 37.0495C310.367 36.357 311.288 36.0107 312.325 36.0107C313.247 36.0107 314.053 36.357 314.745 37.0495C315.321 37.742 315.666 38.55 315.666 39.5887C315.666 39.7042 315.666 39.935 315.666 40.1658H309.906ZM312.21 37.1649C311.634 37.1649 311.058 37.3958 310.712 37.742C310.252 38.0883 310.021 38.55 309.906 39.1271H314.399C314.284 38.55 314.053 37.9729 313.708 37.742C313.362 37.5112 312.671 37.1649 312.21 37.1649Z" fill="#F6775B"/>
<path d="M319.927 43.0515C318.89 43.0515 318.084 42.7053 317.392 42.0127C316.701 41.3202 316.355 40.5123 316.355 39.4735C316.355 38.4347 316.701 37.6268 317.392 36.9343C318.084 36.2418 318.89 35.8955 319.927 35.8955C320.618 35.8955 321.194 36.0109 321.655 36.3572C322.231 36.7034 322.577 37.0497 322.807 37.6268L321.885 38.2039C321.77 37.8576 321.425 37.5114 321.079 37.396C320.733 37.1651 320.273 37.0497 319.927 37.0497C319.236 37.0497 318.66 37.2805 318.199 37.7422C317.738 38.2039 317.508 38.781 317.508 39.4735C317.508 40.166 317.738 40.7431 318.199 41.2048C318.66 41.6665 319.236 41.8973 319.927 41.8973C320.388 41.8973 320.733 41.7819 321.079 41.551C321.425 41.3202 321.655 41.0894 321.885 40.7431L322.922 41.3202C322.692 41.8973 322.231 42.2436 321.655 42.5898C321.194 42.9361 320.618 43.0515 319.927 43.0515Z" fill="#F6775B"/>
<path d="M329.608 36.2418H330.76V42.9361H329.608V41.7819C329.032 42.7053 328.225 43.0515 327.073 43.0515C326.152 43.0515 325.345 42.7053 324.654 42.0127C323.963 41.3202 323.617 40.5123 323.617 39.4735C323.617 38.5502 323.963 37.6268 324.654 36.9343C325.345 36.2418 326.152 35.8955 327.073 35.8955C328.225 35.8955 329.032 36.3572 329.608 37.1651V36.2418ZM327.189 42.0127C327.88 42.0127 328.456 41.7819 328.917 41.3202C329.378 40.8585 329.608 40.2815 329.608 39.5889C329.608 38.8964 329.378 38.3193 328.917 37.8576C328.456 37.396 327.88 37.1651 327.189 37.1651C326.497 37.1651 325.921 37.396 325.461 37.8576C325 38.3193 324.769 38.8964 324.769 39.5889C324.769 40.2815 325 40.8585 325.461 41.3202C325.921 41.7819 326.497 42.0127 327.189 42.0127Z" fill="#F6775B"/>
<defs>
<linearGradient id="paint0_linear_153_66396" x1="4.43167" y1="63.4441" x2="117.512" y2="74.6989" gradientUnits="userSpaceOnUse">
<stop offset="0.0531275" stop-color="#00286D"/>
<stop offset="0.3595" stop-color="#14479B"/>
<stop offset="0.5766" stop-color="#0C3A80"/>
<stop offset="0.79" stop-color="#13489E"/>
<stop offset="0.9971" stop-color="#14488E"/>
</linearGradient>
<linearGradient id="paint1_linear_153_66396" x1="14.2638" y1="77.6039" x2="100.765" y2="59.7671" gradientUnits="userSpaceOnUse">
<stop offset="0.1346" stop-color="#13489E"/>
<stop offset="0.1968" stop-color="#104396"/>
<stop offset="0.2956" stop-color="#09377E"/>
<stop offset="0.3154" stop-color="#073479"/>
<stop offset="0.5905" stop-color="#08367B"/>
<stop offset="0.6357" stop-color="#0A387D"/>
<stop offset="1" stop-color="#022172"/>
</linearGradient>
</defs>
</svg>
