<svg width="15" height="14" viewBox="0 0 15 14" fill="none" xmlns="http://www.w3.org/2000/svg">
<path d="M1.17229 0.344813L13.6871 6.33016C14.057 6.50707 14.2135 6.95034 14.0365 7.32023C13.9634 7.4732 13.8401 7.59651 13.6871 7.66967L1.17229 13.655C0.802393 13.8319 0.359124 13.6755 0.182218 13.3056C0.105343 13.1448 0.0888401 12.9618 0.135721 12.7899L1.38745 8.2001C1.41881 8.08512 1.51588 8.00002 1.63398 7.98398L7.69834 7.16022C7.7506 7.15276 7.7939 7.11841 7.81391 7.07152L7.82433 7.03423C7.83427 6.96465 7.79424 6.89945 7.73148 6.87494L7.69834 6.86624L1.64108 6.04252C1.52299 6.02646 1.42594 5.94136 1.39459 5.82639L0.135721 1.20991C0.0278372 0.814333 0.261056 0.4062 0.65663 0.298316C0.828526 0.251435 1.01155 0.267939 1.17229 0.344813Z" fill="#FF9B7B"/>
</svg>
