<svg width="5" height="11" viewBox="0 0 5 11" fill="none" xmlns="http://www.w3.org/2000/svg">
<path d="M4 5.50001L4.6 5.95001C4.8 5.68334 4.8 5.31667 4.6 5.05001L4 5.50001ZM0.4 9.05001C0.151472 9.38138 0.218629 9.85148 0.55 10.1C0.881371 10.3485 1.35147 10.2814 1.6 9.95001L0.4 9.05001ZM1.6 1.05001C1.35147 0.718637 0.881371 0.651479 0.55 0.900008C0.218629 1.14854 0.151472 1.61864 0.4 1.95001L1.6 1.05001ZM3.4 5.05001L0.4 9.05001L1.6 9.95001L4.6 5.95001L3.4 5.05001ZM0.4 1.95001L1.9 3.95001L3.1 3.05001L1.6 1.05001L0.4 1.95001ZM1.9 3.95001L3.4 5.95001L4.6 5.05001L3.1 3.05001L1.9 3.95001Z" fill="white"/>
</svg>
