<svg width="35" height="33" viewBox="0 0 35 33" fill="none" xmlns="http://www.w3.org/2000/svg">
<path d="M22.3597 0H10.1214C9.52601 0 9.19525 0.321638 9.1291 0.385965L0.396917 8.87719C0.330764 8.94152 0 9.26316 0 9.77778V29.3977C0 31.3918 1.65382 33 3.70456 33H22.2935C24.3443 33 25.9981 31.3918 25.9981 29.3977V3.60234C26.0642 1.60819 24.4104 0 22.3597 0ZM8.73218 4.56725V7.46199C8.73218 7.97661 8.33526 8.36257 7.80604 8.36257H4.76301L8.73218 4.56725ZM23.2858 29.462C23.2858 29.9766 22.8227 30.3626 22.3597 30.3626H3.70456C3.17534 30.3626 2.77842 29.9123 2.77842 29.462V11.193H7.80604C9.85678 11.193 11.5106 9.58479 11.5106 7.59064V2.70175H22.2935C22.8227 2.70175 23.2197 3.08772 23.2197 3.60234L23.2858 29.462Z" fill="#1655BD"/>
<path fill-rule="evenodd" clip-rule="evenodd" d="M28.0091 11.6543C27.374 11.6489 26.8548 12.1594 26.8494 12.7945C26.844 13.4296 27.3544 13.9488 27.9895 13.9543L30.7864 13.9781L23.9965 19.9692L20.757 17.1346C20.3556 16.7833 19.7653 16.7542 19.3313 17.0642L12.3313 22.0642C11.8144 22.4334 11.6947 23.1516 12.0639 23.6685C12.4331 24.1853 13.1513 24.305 13.6681 23.9358L19.9274 19.4649L23.2424 22.3655C23.6774 22.7461 24.3272 22.7447 24.7606 22.3623L32.483 15.5484L32.4579 18.4993C32.4524 19.1344 32.9629 19.6537 33.598 19.6591C34.2331 19.6645 34.7524 19.154 34.7578 18.5189L34.8059 12.8623C34.8113 12.2271 34.3009 11.7079 33.6658 11.7025L28.0091 11.6543Z" fill="#F6775B"/>
</svg>
