<svg width="33" height="30" viewBox="0 0 33 30" fill="none" xmlns="http://www.w3.org/2000/svg">
<path d="M16.5 12.4V28M16.5 12.4C16.5 8.75966 16.5 6.9395 15.7976 5.54906C15.1797 4.32601 14.1939 3.33164 12.9813 2.70845C11.6027 2 9.79812 2 6.18889 2H4.57778C3.67547 2 3.22432 2 2.87968 2.17711C2.57654 2.33291 2.33007 2.58151 2.17559 2.88727C2 3.23487 2 3.68992 2 4.6V22.15C2 23.0602 2 23.5152 2.17559 23.8627C2.33007 24.1686 2.57654 24.417 2.87968 24.5729C3.22432 24.75 3.67547 24.75 4.57778 24.75H9.32521C10.1955 24.75 10.6307 24.75 11.0514 24.8257C11.4249 24.8928 11.7893 25.004 12.137 25.1572C12.5287 25.3296 12.8907 25.5731 13.6148 26.0601L16.5 28M16.5 12.4C16.5 8.75966 16.5 6.9395 17.2024 5.54906C17.8203 4.32601 18.8061 3.33164 20.0187 2.70845C21.3973 2 23.2019 2 26.8111 2H28.4222C29.3246 2 29.7757 2 30.1203 2.17711C30.4235 2.33291 30.6699 2.58151 30.8244 2.88727C31 3.23487 31 3.68992 31 4.6V22.15C31 23.0602 31 23.5152 30.8244 23.8627C30.6699 24.1686 30.4235 24.417 30.1203 24.5729C29.7757 24.75 29.3246 24.75 28.4222 24.75H23.6748C22.8044 24.75 22.3693 24.75 21.9486 24.8257C21.575 24.8928 21.2107 25.004 20.863 25.1572C20.4714 25.3296 20.1092 25.5731 19.3852 26.0601L16.5 28" stroke="#F6775B" stroke-width="2.4" stroke-linecap="round" stroke-linejoin="round"/>
</svg>
